HIERARCHY
ROOT Hips
{
  OFFSET 51.771 100.708 9.53786
  CHANNELS 6 Xposition Yposition Zposition Zrotation Xrotation Yrotation
  JOINT spine
  {
    OFFSET 0 8.81705 0.507024
    CHANNELS 3 Zrotation Xrotation Yrotation
    JOINT spine1
    {
      OFFSET 0 10.7766 0
      CHANNELS 3 Zrotation Xrotation Yrotation
      JOINT spine2
      {
        OFFSET 0 10.3259 0
        CHANNELS 3 Zrotation Xrotation Yrotation
        JOINT Neck
        {
          OFFSET 0 26.511 1.26395
          CHANNELS 3 Zrotation Xrotation Yrotation
          JOINT Head
          {
            OFFSET 0 8.00966 0
            CHANNELS 3 Zrotation Xrotation Yrotation
            End Site
            {
              OFFSET 0 19.3879 -6.39386
            }
          }
        }
        JOINT RightShoulder
        {
          OFFSET -4.34795 11.1512 -0.605422
          CHANNELS 3 Zrotation Xrotation Yrotation
          JOINT RightArm
          {
            OFFSET 0 14.6258 0
            CHANNELS 3 Zrotation Xrotation Yrotation
            JOINT RightArmRoll
            {
              OFFSET 0 7.3834 0
              CHANNELS 3 Zrotation Xrotation Yrotation
              JOINT RightForeArm
              {
                OFFSET 0 21.5052 0
                CHANNELS 3 Zrotation Xrotation Yrotation
                JOINT RightForeArmRoll
                {
                  OFFSET 0 8.28532 0
                  CHANNELS 3 Zrotation Xrotation Yrotation
                  JOINT RightHand
                  {
                    OFFSET 0 16.6268 0
                    CHANNELS 3 Zrotation Xrotation Yrotation
                    End Site
                    {
                      OFFSET 0 0 0
                    }
                  }
                }
              }
            }
          }
        }
        JOINT LeftShoulder
        {
          OFFSET 4.34795 11.1512 -0.605422
          CHANNELS 3 Zrotation Xrotation Yrotation
          JOINT LeftArm
          {
            OFFSET 0 14.6258 0
            CHANNELS 3 Zrotation Xrotation Yrotation
            JOINT LeftArmRoll
            {
              OFFSET 0 7.3834 0
              CHANNELS 3 Zrotation Xrotation Yrotation
              JOINT LeftForeArm
              {
                OFFSET 0 21.5052 0
                CHANNELS 3 Zrotation Xrotation Yrotation
                JOINT LeftForeArmRoll
                {
                  OFFSET 0 8.28532 0
                  CHANNELS 3 Zrotation Xrotation Yrotation
                  JOINT LeftHand
                  {
                    OFFSET 0 16.6268 0
                    CHANNELS 3 Zrotation Xrotation Yrotation
                    End Site
                    {
                      OFFSET 0 0 0
                    }
                  }
                }
              }
            }
          }
        }
      }
    }
  }
  JOINT RightUpLeg
  {
    OFFSET -7.8151 -1.43309 -1.20217
    CHANNELS 3 Zrotation Xrotation Yrotation
    JOINT RightUpLegRoll
    {
      OFFSET 0 19.4959 0
      CHANNELS 3 Zrotation Xrotation Yrotation
      JOINT RightLeg
      {
        OFFSET 0 -24.1427 0
        CHANNELS 3 Zrotation Xrotation Yrotation
        JOINT RightLegRoll
        {
          OFFSET 0 24.2217 0
          CHANNELS 3 Zrotation Xrotation Yrotation
          JOINT RightFoot
          {
            OFFSET 0 20.1605 0
            CHANNELS 3 Zrotation Xrotation Yrotation
            JOINT RightToeBase
            {
              OFFSET 0 16.8532 0
              CHANNELS 3 Zrotation Xrotation Yrotation
              End Site
              {
                OFFSET 0.00714343 8.16187 -0.94078
              }
            }
          }
        }
      }
    }
  }
  JOINT LeftUpLeg
  {
    OFFSET 7.8151 -1.43309 -1.20217
    CHANNELS 3 Zrotation Xrotation Yrotation
    JOINT LeftUpLegRoll
    {
      OFFSET 0 19.496 0
      CHANNELS 3 Zrotation Xrotation Yrotation
      JOINT LeftLeg
      {
        OFFSET 0 24.1426 0
        CHANNELS 3 Zrotation Xrotation Yrotation
        JOINT LeftLegRoll
        {
          OFFSET 0 24.4456 0
          CHANNELS 3 Zrotation Xrotation Yrotation
          JOINT LeftFoot
          {
            OFFSET 0 19.9366 0
            CHANNELS 3 Zrotation Xrotation Yrotation
            JOINT LeftToeBase
            {
              OFFSET 0 16.8532 0
              CHANNELS 3 Zrotation Xrotation Yrotation
              End Site
              {
                OFFSET -0.0320138 8.16187 -0.94078
              }
            }
          }
        }
      }
    }
  }
}
MOTION
Frames: 4
Frame Time: 0.00208333
51.4763 100.72 9.01207 0.36389 -4.02259 1.93345 0.175946 -1.77131 -0.0387315 0.334713 0.460071 -0.0826828 0.335811 2.10513 -0.088278 -2.95041 29.563 3.45393 -3.32675 -9.9652 1.65202 66.0064 -1.13012 -1.51337 105.501 13.6587 12.8169 2.32977e-007 -4.366e-008 -7.91424e-007 14.3588 5.50138 -0.98009 -6.34404e-006 2.70584e-006 -2.99999 8.02891 -4.95147 0.697695 -63.795 -4.10618 2.93322 -108.976 13.6912 -4.18194 2.63253e-006 3.30722e-006 -6.97918e-008 -12.6223 4.97438 0.960457 8.25135e-006 3.83203e-006 3.005 -8.02887 -4.95146 -0.697672 176.294 -3.00206 0.547343 180 7.01518e-015 178.804 179.259 8.04641 179.615 -2.873e-007 -7.33988e-006 0.167617 -20.128 69.6275 21.0068 8.15118 25.4728 -3.16318 -176.461 -2.60535 1.8372 4.54188e-006 -4.6773e-006 -1.16708 -2.13142 -6.08245 0.152016 3.15495e-006 -4.96529e-006 -0.0836825 19.0554 68.3472 -19.8164 -8.13649 25.2327 3.48774 
51.4664 100.718 9.02125 0.362461 -4.03526 1.92382 0.17553 -1.76869 -0.0360263 0.336071 0.465311 -0.0781371 0.33712 2.11037 -0.0837563 -2.92462 29.5264 3.4466 -3.36894 -9.91275 1.64908 66.0104 -1.14904 -1.52374 105.459 13.6023 12.6894 2.32977e-007 -4.366e-008 -7.91424e-007 14.4554 5.74935 -1.01954 -6.34404e-006 2.70584e-006 -2.99999 8.02891 -4.95147 0.697695 -63.7771 -4.08896 2.92229 -108.955 13.595 -4.0772 2.63253e-006 3.30722e-006 -6.97918e-008 -12.7302 5.14386 0.980707 8.25135e-006 3.83203e-006 3.005 -8.02887 -4.95146 -0.697672 176.296 -3.01846 0.545006 180 7.01518e-015 178.804 179.264 8.04387 179.614 -2.873e-007 -7.33988e-006 0.167617 -20.129 69.6285 21.0078 8.15118 25.4729 -3.16315 -176.457 -2.63384 1.83101 4.54188e-006 -4.6773e-006 -1.16708 -2.1348 -6.06569 0.151705 3.15495e-006 -4.96529e-006 -0.0836825 19.049 68.3399 -19.8096 -8.13649 25.2327 3.48774 
51.4519 100.72 9.04171 0.360951 -4.04917 1.91397 0.175095 -1.76567 -0.0331362 0.337506 0.471367 -0.0732542 0.338502 2.11643 -0.0788986 -2.89778 29.4872 3.43862 -3.41184 -9.85855 1.64589 66.0133 -1.16926 -1.53467 105.419 13.5471 12.5635 2.32977e-007 -4.366e-008 -7.91424e-007 14.5521 5.99232 -1.05798 -6.34404e-006 2.70584e-006 -2.99999 8.02891 -4.95147 0.697695 -63.7577 -4.07145 2.91107 -108.935 13.4998 -3.97318 2.63253e-006 3.30722e-006 -6.97918e-008 -12.8379 5.31002 1.00029 8.25135e-006 3.83203e-006 3.005 -8.02887 -4.95146 -0.697672 176.299 -3.03627 0.542566 180 7.01518e-015 178.804 179.269 8.04141 179.613 -2.873e-007 -7.33988e-006 0.167617 -20.1302 69.6297 21.0091 8.15119 25.473 -3.16312 -176.452 -2.66444 1.82455 4.54188e-006 -4.6773e-006 -1.16708 -2.13821 -6.04788 0.151369 3.15495e-006 -4.96529e-006 -0.0836825 19.0423 68.3321 -19.8023 -8.13649 25.2327 3.48774 
51.4657 100.717 9.03484 0.35938 -4.06394 1.90397 0.174645 -1.76236 -0.0301167 0.338994 0.477995 -0.0681351 0.339933 2.12305 -0.0738056 -2.8702 29.446 3.43019 -3.45524 -9.80312 1.64252 66.0155 -1.19038 -1.54601 105.379 13.4926 12.4387 2.32977e-007 -4.366e-008 -7.91424e-007 14.649 6.23178 -1.09574 -6.34404e-006 2.70584e-006 -2.99999 8.02891 -4.95147 0.697695 -63.737 -4.05375 2.89965 -108.917 13.4052 -3.86968 2.63253e-006 3.30722e-006 -6.97918e-008 -12.9453 5.47385 1.01942 8.25135e-006 3.83203e-006 3.005 -8.02887 -4.95146 -0.697672 176.302 -3.05506 0.540054 180 7.01518e-015 178.804 179.275 8.03899 179.612 -2.873e-007 -7.33988e-006 0.167617 -20.1316 69.6311 21.0105 8.1512 25.4731 -3.1631 -176.447 -2.69652 1.81791 4.54188e-006 -4.6773e-006 -1.16708 -2.14165 -6.02933 0.151016 3.15495e-006 -4.96529e-006 -0.0836825 19.0354 68.3241 -19.7949 -8.13649 25.2327 3.48774 
